<?xml version="1.0" encoding="UTF-8" standalone="no"?>
<!DOCTYPE svg PUBLIC "-//W3C//DTD SVG 1.1//EN"
 "http://www.w3.org/Graphics/SVG/1.1/DTD/svg11.dtd">
<!-- Generated by graphviz version 2.36.0 (20140111.2315)
 -->
<!-- Title: hanoi Pages: 1 -->
<svg width="124pt" height="46pt"
 viewBox="0.00 0.00 124.00 46.00" xmlns="http://www.w3.org/2000/svg" xmlns:xlink="http://www.w3.org/1999/xlink">
<g id="graph0" class="graph" transform="scale(1 1) rotate(0) translate(4 42)">
<title>hanoi</title>
<polygon fill="white" stroke="none" points="-4,4 -4,-42 120,-42 120,4 -4,4"/>
<!-- Node3 -->
<g id="node1" class="node"><title>Node3</title>
<polygon fill="#bfbfbf" stroke="black" points="0.5,-0.5 0.5,-19.5 41.5,-19.5 41.5,-0.5 0.5,-0.5"/>
<text text-anchor="middle" x="21" y="-7.5" font-family="Helvetica,sans-Serif" font-size="10.00">hanoi</text>
</g>
<!-- Node3&#45;&gt;Node3 -->
<g id="edge1" class="edge"><title>Node3&#45;&gt;Node3</title>
<path fill="none" stroke="midnightblue" d="M7.00414,-29.7663C8.10339,-34.4965 12.7687,-38 21,-38 34.5078,-38 38.4124,-28.5653 32.7138,-19.7571"/>
<polygon fill="midnightblue" stroke="midnightblue" points="10.4756,-30.2849 9.28619,-19.7571 3.65078,-28.7288 10.4756,-30.2849"/>
</g>
<!-- Node4 -->
<g id="node2" class="node"><title>Node4</title>
<g id="a_node2"><a xlink:href="main_8c.html#ac0f2228420376f4db7e1274f2b41667c" target="_top" xlink:title="main">
<polygon fill="white" stroke="black" points="78,-0.5 78,-19.5 116,-19.5 116,-0.5 78,-0.5"/>
<text text-anchor="middle" x="97" y="-7.5" font-family="Helvetica,sans-Serif" font-size="10.00">main</text>
</a>
</g>
</g>
<!-- Node3&#45;&gt;Node4 -->
<g id="edge2" class="edge"><title>Node3&#45;&gt;Node4</title>
<path fill="none" stroke="midnightblue" d="M52.0979,-10C60.8451,-10 70.1259,-10 77.8902,-10"/>
<polygon fill="midnightblue" stroke="midnightblue" points="51.8307,-6.5001 41.8306,-10 51.8306,-13.5001 51.8307,-6.5001"/>
</g>
</g>
</svg>
