<?xml version="1.0" encoding="UTF-8" standalone="no"?>
<!DOCTYPE svg PUBLIC "-//W3C//DTD SVG 1.1//EN"
 "http://www.w3.org/Graphics/SVG/1.1/DTD/svg11.dtd">
<!-- Generated by graphviz version 2.36.0 (20140111.2315)
 -->
<!-- Title: hanoi Pages: 1 -->
<svg width="146pt" height="46pt"
 viewBox="0.00 0.00 146.00 46.00" xmlns="http://www.w3.org/2000/svg" xmlns:xlink="http://www.w3.org/1999/xlink">
<g id="graph0" class="graph" transform="scale(1 1) rotate(0) translate(4 42)">
<title>hanoi</title>
<polygon fill="white" stroke="none" points="-4,4 -4,-42 142,-42 142,4 -4,4"/>
<!-- Node0 -->
<g id="node1" class="node"><title>Node0</title>
<polygon fill="#bfbfbf" stroke="black" points="0.5,-0.5 0.5,-19.5 41.5,-19.5 41.5,-0.5 0.5,-0.5"/>
<text text-anchor="middle" x="21" y="-7.5" font-family="Helvetica,sans-Serif" font-size="10.00">hanoi</text>
</g>
<!-- Node0&#45;&gt;Node0 -->
<g id="edge2" class="edge"><title>Node0&#45;&gt;Node0</title>
<path fill="none" stroke="midnightblue" d="M7.7449,-19.7571C1.29648,-28.5653 5.71484,-38 21,-38 30.5532,-38 35.8616,-34.3146 36.9251,-29.4"/>
<polygon fill="midnightblue" stroke="midnightblue" points="40.2968,-28.4604 34.2551,-19.7571 33.5506,-30.3284 40.2968,-28.4604"/>
</g>
<!-- Node1 -->
<g id="node2" class="node"><title>Node1</title>
<g id="a_node2"><a xlink:href="_hanoi_8c.html#ab12cb6194c063104df5bc516c886f31a" target="_top" xlink:title="moveDisk">
<polygon fill="white" stroke="black" points="78,-0.5 78,-19.5 138,-19.5 138,-0.5 78,-0.5"/>
<text text-anchor="middle" x="108" y="-7.5" font-family="Helvetica,sans-Serif" font-size="10.00">moveDisk</text>
</a>
</g>
</g>
<!-- Node0&#45;&gt;Node1 -->
<g id="edge1" class="edge"><title>Node0&#45;&gt;Node1</title>
<path fill="none" stroke="midnightblue" d="M41.7144,-10C49.4823,-10 58.692,-10 67.7081,-10"/>
<polygon fill="midnightblue" stroke="midnightblue" points="67.7181,-13.5001 77.7181,-10 67.718,-6.5001 67.7181,-13.5001"/>
</g>
</g>
</svg>
