<?xml version="1.0" encoding="UTF-8" standalone="no"?>
<!DOCTYPE svg PUBLIC "-//W3C//DTD SVG 1.1//EN"
 "http://www.w3.org/Graphics/SVG/1.1/DTD/svg11.dtd">
<!-- Generated by graphviz version 2.36.0 (20140111.2315)
 -->
<!-- Title: hanoi Pages: 1 -->
<svg width="224pt" height="56pt"
 viewBox="0.00 0.00 224.00 56.49" xmlns="http://www.w3.org/2000/svg" xmlns:xlink="http://www.w3.org/1999/xlink">
<g id="graph0" class="graph" transform="scale(1 1) rotate(0) translate(4 52.4857)">
<title>hanoi</title>
<polygon fill="white" stroke="none" points="-4,4 -4,-52.4857 220,-52.4857 220,4 -4,4"/>
<!-- Node0 -->
<g id="node1" class="node"><title>Node0</title>
<polygon fill="#bfbfbf" stroke="black" points="0.5,-28.5 0.5,-47.5 41.5,-47.5 41.5,-28.5 0.5,-28.5"/>
<text text-anchor="middle" x="21" y="-35.5" font-family="Helvetica,sans-Serif" font-size="10.00">hanoi</text>
</g>
<!-- Node1 -->
<g id="node2" class="node"><title>Node1</title>
<g id="a_node2"><a xlink:href="_hanoi_8c.html#ab12cb6194c063104df5bc516c886f31a" target="_top" xlink:title="moveDisk">
<polygon fill="white" stroke="black" points="156,-28.5 156,-47.5 216,-47.5 216,-28.5 156,-28.5"/>
<text text-anchor="middle" x="186" y="-35.5" font-family="Helvetica,sans-Serif" font-size="10.00">moveDisk</text>
</a>
</g>
</g>
<!-- Node0&#45;&gt;Node1 -->
<g id="edge1" class="edge"><title>Node0&#45;&gt;Node1</title>
<path fill="none" stroke="midnightblue" d="M41.604,-41.9357C52.3094,-43.8862 65.8285,-46.0282 78,-47 96.6074,-48.4857 101.377,-48.2831 120,-47 128.403,-46.421 137.375,-45.4257 145.885,-44.3029"/>
<polygon fill="midnightblue" stroke="midnightblue" points="146.55,-47.7439 155.968,-42.8894 145.578,-40.8117 146.55,-47.7439"/>
</g>
<!-- Node2 -->
<g id="node3" class="node"><title>Node2</title>
<g id="a_node3"><a xlink:href="_hanoi_8c.html#ac9827335a3ca13d81d035ecab18435e0" target="_top" xlink:title="hanoi">
<polygon fill="white" stroke="black" points="78.5,-0.5 78.5,-19.5 119.5,-19.5 119.5,-0.5 78.5,-0.5"/>
<text text-anchor="middle" x="99" y="-7.5" font-family="Helvetica,sans-Serif" font-size="10.00">hanoi</text>
</a>
</g>
</g>
<!-- Node0&#45;&gt;Node2 -->
<g id="edge2" class="edge"><title>Node0&#45;&gt;Node2</title>
<path fill="none" stroke="midnightblue" d="M41.5719,-30.7893C49.9049,-27.7192 59.7979,-24.0745 68.9552,-20.7007"/>
<polygon fill="midnightblue" stroke="midnightblue" points="70.321,-23.9276 78.4944,-17.1863 67.901,-17.3592 70.321,-23.9276"/>
</g>
<!-- Node2&#45;&gt;Node1 -->
<g id="edge3" class="edge"><title>Node2&#45;&gt;Node1</title>
<path fill="none" stroke="midnightblue" d="M119.714,-16.4941C127.722,-19.132 137.262,-22.2746 146.543,-25.3317"/>
<polygon fill="midnightblue" stroke="midnightblue" points="145.452,-28.6573 156.045,-28.4619 147.642,-22.0088 145.452,-28.6573"/>
</g>
<!-- Node2&#45;&gt;Node2 -->
<g id="edge4" class="edge"><title>Node2&#45;&gt;Node2</title>
<path fill="none" stroke="midnightblue" d="M86.9779,-19.7571C81.1294,-28.5653 85.1367,-38 99,-38 107.448,-38 112.236,-34.4965 113.364,-29.7663"/>
<polygon fill="midnightblue" stroke="midnightblue" points="116.708,-28.6966 111.022,-19.7571 109.893,-30.2915 116.708,-28.6966"/>
</g>
</g>
</svg>
