<?xml version="1.0" encoding="UTF-8" standalone="no"?>
<!DOCTYPE svg PUBLIC "-//W3C//DTD SVG 1.1//EN"
 "http://www.w3.org/Graphics/SVG/1.1/DTD/svg11.dtd">
<!-- Generated by graphviz version 2.36.0 (20140111.2315)
 -->
<!-- Title: hanoi Pages: 1 -->
<svg width="202pt" height="65pt"
 viewBox="0.00 0.00 202.00 65.00" xmlns="http://www.w3.org/2000/svg" xmlns:xlink="http://www.w3.org/1999/xlink">
<g id="graph0" class="graph" transform="scale(1 1) rotate(0) translate(4 61)">
<title>hanoi</title>
<polygon fill="white" stroke="none" points="-4,4 -4,-61 198,-61 198,4 -4,4"/>
<!-- Node2 -->
<g id="node1" class="node"><title>Node2</title>
<polygon fill="#bfbfbf" stroke="black" points="0.5,-0.5 0.5,-19.5 41.5,-19.5 41.5,-0.5 0.5,-0.5"/>
<text text-anchor="middle" x="21" y="-7.5" font-family="Helvetica,sans-Serif" font-size="10.00">hanoi</text>
</g>
<!-- Node3 -->
<g id="node2" class="node"><title>Node3</title>
<g id="a_node2"><a xlink:href="_hanoi_8h.html#ac9827335a3ca13d81d035ecab18435e0" target="_top" xlink:title="hanoi">
<polygon fill="white" stroke="black" points="78.5,-19.5 78.5,-38.5 119.5,-38.5 119.5,-19.5 78.5,-19.5"/>
<text text-anchor="middle" x="99" y="-26.5" font-family="Helvetica,sans-Serif" font-size="10.00">hanoi</text>
</a>
</g>
</g>
<!-- Node2&#45;&gt;Node3 -->
<g id="edge1" class="edge"><title>Node2&#45;&gt;Node3</title>
<path fill="none" stroke="midnightblue" d="M51.4104,-17.3526C60.4892,-19.6223 70.2583,-22.0646 78.4944,-24.1236"/>
<polygon fill="midnightblue" stroke="midnightblue" points="52.1222,-13.9229 41.5719,-14.893 50.4244,-20.7139 52.1222,-13.9229"/>
</g>
<!-- Node4 -->
<g id="node3" class="node"><title>Node4</title>
<g id="a_node3"><a xlink:href="main_8c.html#ac0f2228420376f4db7e1274f2b41667c" target="_top" xlink:title="main">
<polygon fill="white" stroke="black" points="156,-0.5 156,-19.5 194,-19.5 194,-0.5 156,-0.5"/>
<text text-anchor="middle" x="175" y="-7.5" font-family="Helvetica,sans-Serif" font-size="10.00">main</text>
</a>
</g>
</g>
<!-- Node2&#45;&gt;Node4 -->
<g id="edge4" class="edge"><title>Node2&#45;&gt;Node4</title>
<path fill="none" stroke="midnightblue" d="M51.7615,-10C82.7273,-10 130.213,-10 155.935,-10"/>
<polygon fill="midnightblue" stroke="midnightblue" points="51.5602,-6.5001 41.5602,-10 51.5601,-13.5001 51.5602,-6.5001"/>
</g>
<!-- Node3&#45;&gt;Node3 -->
<g id="edge2" class="edge"><title>Node3&#45;&gt;Node3</title>
<path fill="none" stroke="midnightblue" d="M85.0041,-48.7663C86.1034,-53.4965 90.7687,-57 99,-57 112.508,-57 116.412,-47.5653 110.714,-38.7571"/>
<polygon fill="midnightblue" stroke="midnightblue" points="88.4756,-49.2849 87.2862,-38.7571 81.6508,-47.7288 88.4756,-49.2849"/>
</g>
<!-- Node3&#45;&gt;Node4 -->
<g id="edge3" class="edge"><title>Node3&#45;&gt;Node4</title>
<path fill="none" stroke="midnightblue" d="M129.522,-21.42C138.436,-19.1312 147.955,-16.6872 155.89,-14.6498"/>
<polygon fill="midnightblue" stroke="midnightblue" points="128.646,-18.0313 119.831,-23.9083 130.387,-24.8114 128.646,-18.0313"/>
</g>
</g>
</svg>
