<?xml version="1.0" encoding="UTF-8" standalone="no"?>
<!DOCTYPE svg PUBLIC "-//W3C//DTD SVG 1.1//EN"
 "http://www.w3.org/Graphics/SVG/1.1/DTD/svg11.dtd">
<!-- Generated by graphviz version 2.36.0 (20140111.2315)
 -->
<!-- Title: moveDisk Pages: 1 -->
<svg width="220pt" height="46pt"
 viewBox="0.00 0.00 220.00 46.00" xmlns="http://www.w3.org/2000/svg" xmlns:xlink="http://www.w3.org/1999/xlink">
<g id="graph0" class="graph" transform="scale(1 1) rotate(0) translate(4 42)">
<title>moveDisk</title>
<polygon fill="white" stroke="none" points="-4,4 -4,-42 216,-42 216,4 -4,4"/>
<!-- Node9 -->
<g id="node1" class="node"><title>Node9</title>
<polygon fill="#bfbfbf" stroke="black" points="0,-0.5 0,-19.5 60,-19.5 60,-0.5 0,-0.5"/>
<text text-anchor="middle" x="30" y="-7.5" font-family="Helvetica,sans-Serif" font-size="10.00">moveDisk</text>
</g>
<!-- Node10 -->
<g id="node2" class="node"><title>Node10</title>
<g id="a_node2"><a xlink:href="_hanoi_8h.html#ac9827335a3ca13d81d035ecab18435e0" target="_top" xlink:title="hanoi">
<polygon fill="white" stroke="black" points="96.5,-0.5 96.5,-19.5 137.5,-19.5 137.5,-0.5 96.5,-0.5"/>
<text text-anchor="middle" x="117" y="-7.5" font-family="Helvetica,sans-Serif" font-size="10.00">hanoi</text>
</a>
</g>
</g>
<!-- Node9&#45;&gt;Node10 -->
<g id="edge1" class="edge"><title>Node9&#45;&gt;Node10</title>
<path fill="none" stroke="midnightblue" d="M70.28,-10C79.3128,-10 88.5407,-10 96.3191,-10"/>
<polygon fill="midnightblue" stroke="midnightblue" points="70.2522,-6.5001 60.2522,-10 70.2521,-13.5001 70.2522,-6.5001"/>
</g>
<!-- Node10&#45;&gt;Node10 -->
<g id="edge2" class="edge"><title>Node10&#45;&gt;Node10</title>
<path fill="none" stroke="midnightblue" d="M103.004,-29.7663C104.103,-34.4965 108.769,-38 117,-38 130.508,-38 134.412,-28.5653 128.714,-19.7571"/>
<polygon fill="midnightblue" stroke="midnightblue" points="106.476,-30.2849 105.286,-19.7571 99.6508,-28.7288 106.476,-30.2849"/>
</g>
<!-- Node11 -->
<g id="node3" class="node"><title>Node11</title>
<g id="a_node3"><a xlink:href="main_8c.html#ac0f2228420376f4db7e1274f2b41667c" target="_top" xlink:title="main">
<polygon fill="white" stroke="black" points="174,-0.5 174,-19.5 212,-19.5 212,-0.5 174,-0.5"/>
<text text-anchor="middle" x="193" y="-7.5" font-family="Helvetica,sans-Serif" font-size="10.00">main</text>
</a>
</g>
</g>
<!-- Node10&#45;&gt;Node11 -->
<g id="edge3" class="edge"><title>Node10&#45;&gt;Node11</title>
<path fill="none" stroke="midnightblue" d="M148.098,-10C156.845,-10 166.126,-10 173.89,-10"/>
<polygon fill="midnightblue" stroke="midnightblue" points="147.831,-6.5001 137.831,-10 147.831,-13.5001 147.831,-6.5001"/>
</g>
</g>
</svg>
