<?xml version="1.0" encoding="UTF-8" standalone="no"?>
<!DOCTYPE svg PUBLIC "-//W3C//DTD SVG 1.1//EN"
 "http://www.w3.org/Graphics/SVG/1.1/DTD/svg11.dtd">
<!-- Generated by graphviz version 2.36.0 (20140111.2315)
 -->
<!-- Title: Hanoi/Hanoi.h Pages: 1 -->
<svg width="179pt" height="84pt"
 viewBox="0.00 0.00 179.00 84.00" xmlns="http://www.w3.org/2000/svg" xmlns:xlink="http://www.w3.org/1999/xlink">
<g id="graph0" class="graph" transform="scale(1 1) rotate(0) translate(4 80)">
<title>Hanoi/Hanoi.h</title>
<polygon fill="white" stroke="none" points="-4,4 -4,-80 175,-80 175,4 -4,4"/>
<!-- Node2 -->
<g id="node1" class="node"><title>Node2</title>
<polygon fill="#bfbfbf" stroke="black" points="46,-56.5 46,-75.5 126,-75.5 126,-56.5 46,-56.5"/>
<text text-anchor="middle" x="86" y="-63.5" font-family="Helvetica,sans-Serif" font-size="10.00">Hanoi/Hanoi.h</text>
</g>
<!-- Node3 -->
<g id="node2" class="node"><title>Node3</title>
<g id="a_node2"><a xlink:href="_hanoi_8c.html" target="_top" xlink:title="Hanoi/Hanoi.c">
<polygon fill="white" stroke="black" points="-0.5,-0.5 -0.5,-19.5 78.5,-19.5 78.5,-0.5 -0.5,-0.5"/>
<text text-anchor="middle" x="39" y="-7.5" font-family="Helvetica,sans-Serif" font-size="10.00">Hanoi/Hanoi.c</text>
</a>
</g>
</g>
<!-- Node2&#45;&gt;Node3 -->
<g id="edge1" class="edge"><title>Node2&#45;&gt;Node3</title>
<path fill="none" stroke="midnightblue" d="M71.5792,-48.4314C63.3419,-38.9673 53.3461,-27.4827 46.6167,-19.7511"/>
<polygon fill="midnightblue" stroke="midnightblue" points="69.0336,-50.8378 78.2389,-56.083 74.3137,-46.2421 69.0336,-50.8378"/>
</g>
<!-- Node4 -->
<g id="node3" class="node"><title>Node4</title>
<g id="a_node3"><a xlink:href="main_8c.html" target="_top" xlink:title="Hanoi/main.c">
<polygon fill="white" stroke="black" points="96.5,-0.5 96.5,-19.5 171.5,-19.5 171.5,-0.5 96.5,-0.5"/>
<text text-anchor="middle" x="134" y="-7.5" font-family="Helvetica,sans-Serif" font-size="10.00">Hanoi/main.c</text>
</a>
</g>
</g>
<!-- Node2&#45;&gt;Node4 -->
<g id="edge2" class="edge"><title>Node2&#45;&gt;Node4</title>
<path fill="none" stroke="midnightblue" d="M100.728,-48.4314C109.14,-38.9673 119.349,-27.4827 126.221,-19.7511"/>
<polygon fill="midnightblue" stroke="midnightblue" points="97.954,-46.2836 93.9262,-56.083 103.186,-50.9342 97.954,-46.2836"/>
</g>
</g>
</svg>
