<?xml version="1.0" encoding="UTF-8" standalone="no"?>
<!DOCTYPE svg PUBLIC "-//W3C//DTD SVG 1.1//EN"
 "http://www.w3.org/Graphics/SVG/1.1/DTD/svg11.dtd">
<!-- Generated by graphviz version 2.36.0 (20140111.2315)
 -->
<!-- Title: main Pages: 1 -->
<svg width="228pt" height="84pt"
 viewBox="0.00 0.00 228.00 84.00" xmlns="http://www.w3.org/2000/svg" xmlns:xlink="http://www.w3.org/1999/xlink">
<g id="graph0" class="graph" transform="scale(1 1) rotate(0) translate(4 80)">
<title>main</title>
<polygon fill="white" stroke="none" points="-4,4 -4,-80 224,-80 224,4 -4,4"/>
<!-- Node0 -->
<g id="node1" class="node"><title>Node0</title>
<polygon fill="#bfbfbf" stroke="black" points="0,-28.5 0,-47.5 38,-47.5 38,-28.5 0,-28.5"/>
<text text-anchor="middle" x="19" y="-35.5" font-family="Helvetica,sans-Serif" font-size="10.00">main</text>
</g>
<!-- Node1 -->
<g id="node2" class="node"><title>Node1</title>
<g id="a_node2"><a xlink:href="_hanoi_8c.html#a6986c43e6c9c5fdbc9fdfb9a54833912" target="_top" xlink:title="manual">
<polygon fill="white" stroke="black" points="74.5,-56.5 74.5,-75.5 123.5,-75.5 123.5,-56.5 74.5,-56.5"/>
<text text-anchor="middle" x="99" y="-63.5" font-family="Helvetica,sans-Serif" font-size="10.00">manual</text>
</a>
</g>
</g>
<!-- Node0&#45;&gt;Node1 -->
<g id="edge1" class="edge"><title>Node0&#45;&gt;Node1</title>
<path fill="none" stroke="midnightblue" d="M38.0908,-44.4941C46.0228,-47.3415 55.593,-50.777 64.7336,-54.0582"/>
<polygon fill="midnightblue" stroke="midnightblue" points="63.7913,-57.4386 74.3858,-57.5231 66.1564,-50.8502 63.7913,-57.4386"/>
</g>
<!-- Node2 -->
<g id="node3" class="node"><title>Node2</title>
<g id="a_node3"><a xlink:href="_hanoi_8c.html#ac9827335a3ca13d81d035ecab18435e0" target="_top" xlink:title="hanoi">
<polygon fill="white" stroke="black" points="78.5,-0.5 78.5,-19.5 119.5,-19.5 119.5,-0.5 78.5,-0.5"/>
<text text-anchor="middle" x="99" y="-7.5" font-family="Helvetica,sans-Serif" font-size="10.00">hanoi</text>
</a>
</g>
</g>
<!-- Node0&#45;&gt;Node2 -->
<g id="edge2" class="edge"><title>Node0&#45;&gt;Node2</title>
<path fill="none" stroke="midnightblue" d="M38.0908,-31.5059C47.2308,-28.2248 58.5462,-24.1629 68.8729,-20.4559"/>
<polygon fill="midnightblue" stroke="midnightblue" points="70.1383,-23.7204 78.3677,-17.0475 67.7732,-17.132 70.1383,-23.7204"/>
</g>
<!-- Node2&#45;&gt;Node2 -->
<g id="edge4" class="edge"><title>Node2&#45;&gt;Node2</title>
<path fill="none" stroke="midnightblue" d="M86.6697,-19.7571C80.6711,-28.5653 84.7812,-38 99,-38 107.665,-38 112.575,-34.4965 113.732,-29.7663"/>
<polygon fill="midnightblue" stroke="midnightblue" points="117.067,-28.6641 111.33,-19.7571 110.261,-30.2978 117.067,-28.6641"/>
</g>
<!-- Node3 -->
<g id="node4" class="node"><title>Node3</title>
<g id="a_node4"><a xlink:href="_hanoi_8c.html#ab12cb6194c063104df5bc516c886f31a" target="_top" xlink:title="moveDisk">
<polygon fill="white" stroke="black" points="160,-0.5 160,-19.5 220,-19.5 220,-0.5 160,-0.5"/>
<text text-anchor="middle" x="190" y="-7.5" font-family="Helvetica,sans-Serif" font-size="10.00">moveDisk</text>
</a>
</g>
</g>
<!-- Node2&#45;&gt;Node3 -->
<g id="edge3" class="edge"><title>Node2&#45;&gt;Node3</title>
<path fill="none" stroke="midnightblue" d="M119.752,-10C128.586,-10 139.328,-10 149.689,-10"/>
<polygon fill="midnightblue" stroke="midnightblue" points="149.839,-13.5001 159.839,-10 149.839,-6.5001 149.839,-13.5001"/>
</g>
</g>
</svg>
