<?xml version="1.0" encoding="UTF-8" standalone="no"?>
<!DOCTYPE svg PUBLIC "-//W3C//DTD SVG 1.1//EN"
 "http://www.w3.org/Graphics/SVG/1.1/DTD/svg11.dtd">
<!-- Generated by graphviz version 2.36.0 (20140111.2315)
 -->
<!-- Title: Hanoi/main.c Pages: 1 -->
<svg width="163pt" height="140pt"
 viewBox="0.00 0.00 163.00 140.00" xmlns="http://www.w3.org/2000/svg" xmlns:xlink="http://www.w3.org/1999/xlink">
<g id="graph0" class="graph" transform="scale(1 1) rotate(0) translate(4 136)">
<title>Hanoi/main.c</title>
<polygon fill="white" stroke="none" points="-4,4 -4,-136 159,-136 159,4 -4,4"/>
<!-- Node0 -->
<g id="node1" class="node"><title>Node0</title>
<polygon fill="#bfbfbf" stroke="black" points="41.5,-112.5 41.5,-131.5 116.5,-131.5 116.5,-112.5 41.5,-112.5"/>
<text text-anchor="middle" x="79" y="-119.5" font-family="Helvetica,sans-Serif" font-size="10.00">Hanoi/main.c</text>
</g>
<!-- Node1 -->
<g id="node2" class="node"><title>Node1</title>
<g id="a_node2"><a xlink:href="_hanoi_8h.html" target="_top" xlink:title="Hanoi.h">
<polygon fill="white" stroke="black" points="-0.5,-56.5 -0.5,-75.5 50.5,-75.5 50.5,-56.5 -0.5,-56.5"/>
<text text-anchor="middle" x="25" y="-63.5" font-family="Helvetica,sans-Serif" font-size="10.00">Hanoi.h</text>
</a>
</g>
</g>
<!-- Node0&#45;&gt;Node1 -->
<g id="edge1" class="edge"><title>Node0&#45;&gt;Node1</title>
<path fill="none" stroke="midnightblue" d="M70.083,-112.083C62.2195,-104.22 50.5688,-92.5688 41.0813,-83.0813"/>
<polygon fill="midnightblue" stroke="midnightblue" points="43.2971,-80.3473 33.7511,-75.7511 38.3473,-85.2971 43.2971,-80.3473"/>
</g>
<!-- Node2 -->
<g id="node3" class="node"><title>Node2</title>
<polygon fill="white" stroke="#bfbfbf" points="29,-0.5 29,-19.5 75,-19.5 75,-0.5 29,-0.5"/>
<text text-anchor="middle" x="52" y="-7.5" font-family="Helvetica,sans-Serif" font-size="10.00">stdio.h</text>
</g>
<!-- Node0&#45;&gt;Node2 -->
<g id="edge3" class="edge"><title>Node0&#45;&gt;Node2</title>
<path fill="none" stroke="midnightblue" d="M76.8814,-112.368C72.5242,-94.617 62.4727,-53.6664 56.5648,-29.5974"/>
<polygon fill="midnightblue" stroke="midnightblue" points="59.8918,-28.4688 54.1088,-19.5914 53.0936,-30.1375 59.8918,-28.4688"/>
</g>
<!-- Node3 -->
<g id="node4" class="node"><title>Node3</title>
<polygon fill="white" stroke="#bfbfbf" points="107,-56.5 107,-75.5 155,-75.5 155,-56.5 107,-56.5"/>
<text text-anchor="middle" x="131" y="-63.5" font-family="Helvetica,sans-Serif" font-size="10.00">stdlib.h</text>
</g>
<!-- Node0&#45;&gt;Node3 -->
<g id="edge4" class="edge"><title>Node0&#45;&gt;Node3</title>
<path fill="none" stroke="midnightblue" d="M87.5867,-112.083C95.159,-104.22 106.378,-92.5688 115.514,-83.0813"/>
<polygon fill="midnightblue" stroke="midnightblue" points="118.158,-85.3821 122.573,-75.7511 113.115,-80.5266 118.158,-85.3821"/>
</g>
<!-- Node1&#45;&gt;Node2 -->
<g id="edge2" class="edge"><title>Node1&#45;&gt;Node2</title>
<path fill="none" stroke="midnightblue" d="M29.4585,-56.083C33.1543,-48.6913 38.5234,-37.9533 43.0945,-28.8111"/>
<polygon fill="midnightblue" stroke="midnightblue" points="46.2828,-30.2606 47.6245,-19.7511 40.0218,-27.1301 46.2828,-30.2606"/>
</g>
</g>
</svg>
